<?xml version="1.0" encoding="UTF-8"?>
<!DOCTYPE score-partwise PUBLIC "-//Recordare//DTD MusicXML 2.0 Partwise//EN"
  "http://www.musicxml.org/dtds/partwise.dtd">
<score-partwise version="2.0"><work><work-title>Hush</work-title></work><identification><creator type="composer"/><creator type="lyricist"/><rights/><encoding><software>Noteflight version 0.4</software><encoding-date>2024-02-07</encoding-date><supports attribute="new-system" element="print" type="no" value="no"/><supports attribute="new-page" element="print" type="no" value="no"/></encoding></identification><defaults><scaling><millimeters>2.1166666679999997</millimeters><tenths>10</tenths></scaling><page-layout><page-height>1320</page-height><page-width>1020</page-width><page-margins type="both"><left-margin>59.583333333333336</left-margin><right-margin>56.66666666666667</right-margin><top-margin>96.66666666666667</top-margin><bottom-margin>80</bottom-margin></page-margins></page-layout><system-layout><system-margins><left-margin>59.583333333333336</left-margin><right-margin>26.666666666666668</right-margin></system-margins><system-distance>92.5</system-distance><top-system-distance>145.83333333333334</top-system-distance></system-layout><staff-layout><staff-distance>55</staff-distance></staff-layout></defaults><credit page="1"><credit-type>title</credit-type><credit-words font-size="24" default-x="510" default-y="1210" justify="right" valign="top">Hush</credit-words></credit><part-list><score-part id="P1"><part-name>Violin</part-name><part-abbreviation>Vn.</part-abbreviation><score-instrument id="P1I1"><instrument-name>Violin</instrument-name><instrument-sound>strings.violin</instrument-sound></score-instrument><midi-instrument id="P1I1"><midi-channel>1</midi-channel><midi-program>41</midi-program></midi-instrument></score-part></part-list><part id="P1"><measure number="1"><attributes><divisions>192</divisions><key><fifths>3</fifths><mode>major</mode></key><time print-object="yes"><beats>4</beats><beat-type>4</beat-type></time><clef number="1"><sign>G</sign><line>2</line></clef></attributes><direction placement="above"><direction-type><metronome><beat-unit>quarter</beat-unit><per-minute>101</per-minute></metronome></direction-type><sound tempo="101"/></direction><direction placement="above"><direction-type><metronome><beat-unit>quarter</beat-unit><per-minute>101</per-minute></metronome></direction-type><sound tempo="101"/></direction><note><pitch><step>F</step><alter>1</alter><octave>4</octave></pitch><duration>192</duration><voice>1</voice><type>quarter</type></note><note><pitch><step>G</step><alter>1</alter><octave>4</octave></pitch><duration>96</duration><voice>1</voice><type>eighth</type><beam number="1">begin</beam></note><note><pitch><step>A</step><octave>4</octave></pitch><duration>96</duration><voice>1</voice><type>eighth</type><beam number="1">end</beam></note><note><pitch><step>C</step><alter>1</alter><octave>5</octave></pitch><duration>384</duration><voice>1</voice><type>half</type></note></measure><measure number="2"><attributes/><note><pitch><step>A</step><octave>4</octave></pitch><duration>192</duration><voice>1</voice><type>quarter</type></note><note><pitch><step>C</step><alter>1</alter><octave>5</octave></pitch><duration>96</duration><voice>1</voice><type>eighth</type><beam number="1">begin</beam></note><note><pitch><step>B</step><octave>4</octave></pitch><duration>96</duration><voice>1</voice><type>eighth</type><beam number="1">end</beam></note><note><pitch><step>C</step><alter>1</alter><octave>5</octave></pitch><duration>384</duration><voice>1</voice><type>half</type></note></measure><measure number="3"><attributes/><note><pitch><step>A</step><octave>4</octave></pitch><duration>384</duration><voice>1</voice><type>half</type></note><note><pitch><step>C</step><alter>1</alter><octave>5</octave></pitch><duration>384</duration><voice>1</voice><type>half</type></note></measure><measure number="4"><attributes/><note><pitch><step>B</step><octave>4</octave></pitch><duration>768</duration><voice>1</voice><type>whole</type></note></measure><measure number="5"><attributes/><note><pitch><step>F</step><alter>1</alter><octave>4</octave></pitch><duration>192</duration><voice>1</voice><type>quarter</type></note><note><pitch><step>G</step><alter>1</alter><octave>4</octave></pitch><duration>96</duration><voice>1</voice><type>eighth</type><beam number="1">begin</beam></note><note><pitch><step>A</step><octave>4</octave></pitch><duration>96</duration><voice>1</voice><type>eighth</type><beam number="1">end</beam></note><note><pitch><step>C</step><alter>1</alter><octave>5</octave></pitch><duration>384</duration><voice>1</voice><type>half</type></note></measure><measure number="6"><attributes/><note><pitch><step>D</step><octave>5</octave></pitch><duration>192</duration><voice>1</voice><type>quarter</type></note><note><pitch><step>E</step><octave>5</octave></pitch><voice>1</voice><type>eighth</type><duration>64</duration><time-modification><actual-notes>3</actual-notes><normal-notes>2</normal-notes><normal-type>quarter</normal-type></time-modification><beam number="1">begin</beam><notations><tuplet type="start" number="1"><tuplet-actual><tuplet-number>3</tuplet-number><tuplet-type>eighth</tuplet-type></tuplet-actual><tuplet-normal><tuplet-number>1</tuplet-number><tuplet-type>quarter</tuplet-type></tuplet-normal></tuplet></notations></note><note><pitch><step>D</step><octave>5</octave></pitch><voice>1</voice><type>eighth</type><duration>64</duration><time-modification><actual-notes>3</actual-notes><normal-notes>2</normal-notes><normal-type>quarter</normal-type></time-modification><beam number="1">continue</beam></note><note><pitch><step>C</step><alter>1</alter><octave>5</octave></pitch><voice>1</voice><type>eighth</type><duration>64</duration><time-modification><actual-notes>3</actual-notes><normal-notes>2</normal-notes><normal-type>quarter</normal-type></time-modification><beam number="1">end</beam><notations><tuplet type="stop" number="1"/></notations></note><note><pitch><step>D</step><octave>5</octave></pitch><duration>384</duration><voice>1</voice><type>half</type></note></measure><measure number="7"><attributes/><note><pitch><step>C</step><alter>1</alter><octave>5</octave></pitch><duration>384</duration><voice>1</voice><type>half</type></note><note><pitch><step>C</step><alter>1</alter><octave>5</octave></pitch><tie type="start"/><voice>1</voice><type>eighth</type><duration>64</duration><time-modification><actual-notes>3</actual-notes><normal-notes>2</normal-notes><normal-type>quarter</normal-type></time-modification><beam number="1">begin</beam><notations><tuplet type="start" number="1"><tuplet-actual><tuplet-number>3</tuplet-number><tuplet-type>eighth</tuplet-type></tuplet-actual><tuplet-normal><tuplet-number>1</tuplet-number><tuplet-type>quarter</tuplet-type></tuplet-normal></tuplet><tied type="start"/></notations></note><note><pitch><step>C</step><alter>1</alter><octave>5</octave></pitch><tie type="stop"/><voice>1</voice><type>eighth</type><duration>64</duration><time-modification><actual-notes>3</actual-notes><normal-notes>2</normal-notes><normal-type>quarter</normal-type></time-modification><beam number="1">continue</beam><notations><tied type="stop"/></notations></note><note><pitch><step>D</step><octave>5</octave></pitch><tie type="start"/><voice>1</voice><type>eighth</type><duration>64</duration><time-modification><actual-notes>3</actual-notes><normal-notes>2</normal-notes><normal-type>quarter</normal-type></time-modification><beam number="1">end</beam><notations><tuplet type="stop" number="1"/><tied type="start"/></notations></note><note><pitch><step>D</step><octave>5</octave></pitch><tie type="stop"/><voice>1</voice><type>eighth</type><duration>64</duration><time-modification><actual-notes>3</actual-notes><normal-notes>2</normal-notes><normal-type>quarter</normal-type></time-modification><beam number="1">begin</beam><notations><tuplet type="start" number="1"><tuplet-actual><tuplet-number>3</tuplet-number><tuplet-type>eighth</tuplet-type></tuplet-actual><tuplet-normal><tuplet-number>1</tuplet-number><tuplet-type>quarter</tuplet-type></tuplet-normal></tuplet><tied type="stop"/></notations></note><note><pitch><step>E</step><octave>5</octave></pitch><tie type="start"/><voice>1</voice><type>eighth</type><duration>64</duration><time-modification><actual-notes>3</actual-notes><normal-notes>2</normal-notes><normal-type>quarter</normal-type></time-modification><beam number="1">continue</beam><notations><tied type="start"/></notations></note><note><pitch><step>E</step><octave>5</octave></pitch><tie type="stop"/><voice>1</voice><type>eighth</type><duration>64</duration><time-modification><actual-notes>3</actual-notes><normal-notes>2</normal-notes><normal-type>quarter</normal-type></time-modification><beam number="1">end</beam><notations><tuplet type="stop" number="1"/><tied type="stop"/></notations></note></measure><measure number="8"><attributes/><note><pitch><step>B</step><octave>4</octave></pitch><duration>768</duration><voice>1</voice><type>whole</type></note></measure><measure number="9"><attributes/><note><pitch><step>C</step><alter>1</alter><octave>5</octave></pitch><duration>384</duration><voice>1</voice><type>half</type></note><note><pitch><step>C</step><alter>1</alter><octave>5</octave></pitch><duration>96</duration><voice>1</voice><type>eighth</type><beam number="1">begin</beam></note><note><pitch><step>B</step><octave>4</octave></pitch><duration>96</duration><voice>1</voice><type>eighth</type><beam number="1">continue</beam></note><note><pitch><step>A</step><octave>4</octave></pitch><duration>144</duration><voice>1</voice><type>eighth</type><dot/><beam number="1">continue</beam></note><note><pitch><step>G</step><alter>1</alter><octave>4</octave></pitch><duration>48</duration><voice>1</voice><type>16th</type><beam number="1">end</beam></note></measure><measure number="10"><attributes/><note><pitch><step>A</step><octave>4</octave></pitch><duration>768</duration><voice>1</voice><type>whole</type></note></measure><measure number="11"><attributes/><note><pitch><step>C</step><alter>1</alter><octave>5</octave></pitch><duration>384</duration><voice>1</voice><type>half</type></note><note><pitch><step>C</step><alter>1</alter><octave>5</octave></pitch><tie type="start"/><voice>1</voice><type>eighth</type><duration>64</duration><time-modification><actual-notes>3</actual-notes><normal-notes>2</normal-notes><normal-type>quarter</normal-type></time-modification><beam number="1">begin</beam><notations><tuplet type="start" number="1"><tuplet-actual><tuplet-number>3</tuplet-number><tuplet-type>eighth</tuplet-type></tuplet-actual><tuplet-normal><tuplet-number>1</tuplet-number><tuplet-type>quarter</tuplet-type></tuplet-normal></tuplet><tied type="start"/></notations></note><note><pitch><step>C</step><alter>1</alter><octave>5</octave></pitch><tie type="stop"/><voice>1</voice><type>eighth</type><duration>64</duration><time-modification><actual-notes>3</actual-notes><normal-notes>2</normal-notes><normal-type>quarter</normal-type></time-modification><beam number="1">continue</beam><notations><tied type="stop"/></notations></note><note><pitch><step>D</step><octave>5</octave></pitch><tie type="start"/><voice>1</voice><type>eighth</type><duration>64</duration><time-modification><actual-notes>3</actual-notes><normal-notes>2</normal-notes><normal-type>quarter</normal-type></time-modification><beam number="1">end</beam><notations><tuplet type="stop" number="1"/><tied type="start"/></notations></note><note><pitch><step>D</step><octave>5</octave></pitch><tie type="stop"/><voice>1</voice><type>eighth</type><duration>64</duration><time-modification><actual-notes>3</actual-notes><normal-notes>2</normal-notes><normal-type>quarter</normal-type></time-modification><beam number="1">begin</beam><notations><tuplet type="start" number="1"><tuplet-actual><tuplet-number>3</tuplet-number><tuplet-type>eighth</tuplet-type></tuplet-actual><tuplet-normal><tuplet-number>1</tuplet-number><tuplet-type>quarter</tuplet-type></tuplet-normal></tuplet><tied type="stop"/></notations></note><note><pitch><step>E</step><octave>5</octave></pitch><tie type="start"/><voice>1</voice><type>eighth</type><duration>64</duration><time-modification><actual-notes>3</actual-notes><normal-notes>2</normal-notes><normal-type>quarter</normal-type></time-modification><beam number="1">continue</beam><notations><tied type="start"/></notations></note><note><pitch><step>E</step><octave>5</octave></pitch><tie type="stop"/><voice>1</voice><type>eighth</type><duration>64</duration><time-modification><actual-notes>3</actual-notes><normal-notes>2</normal-notes><normal-type>quarter</normal-type></time-modification><beam number="1">end</beam><notations><tuplet type="stop" number="1"/><tied type="stop"/></notations></note></measure><measure number="12"><attributes/><note><pitch><step>B</step><octave>4</octave></pitch><duration>768</duration><voice>1</voice><type>whole</type></note></measure><measure number="13"><attributes/><note><pitch><step>F</step><alter>1</alter><octave>4</octave></pitch><duration>192</duration><voice>1</voice><type>quarter</type></note><note><pitch><step>A</step><octave>4</octave></pitch><duration>192</duration><voice>1</voice><type>quarter</type></note><note><pitch><step>G</step><alter>1</alter><octave>4</octave></pitch><duration>192</duration><voice>1</voice><type>quarter</type></note><note><pitch><step>A</step><octave>4</octave></pitch><duration>192</duration><voice>1</voice><type>quarter</type></note></measure><measure number="14"><attributes/><note><pitch><step>F</step><alter>1</alter><octave>4</octave></pitch><duration>768</duration><voice>1</voice><type>whole</type></note></measure><measure number="15"><attributes/><note><pitch><step>F</step><alter>1</alter><octave>4</octave></pitch><duration>192</duration><voice>1</voice><type>quarter</type></note><note><pitch><step>A</step><octave>4</octave></pitch><duration>192</duration><voice>1</voice><type>quarter</type></note><note><pitch><step>G</step><alter>1</alter><octave>4</octave></pitch><duration>192</duration><voice>1</voice><type>quarter</type></note><note><pitch><step>A</step><octave>4</octave></pitch><duration>192</duration><voice>1</voice><type>quarter</type></note></measure><measure number="16"><attributes/><note><pitch><step>B</step><octave>4</octave></pitch><duration>384</duration><voice>1</voice><type>half</type></note><note><pitch><step>G</step><alter>1</alter><octave>4</octave></pitch><duration>384</duration><voice>1</voice><type>half</type></note></measure><measure number="17"><attributes/><note><pitch><step>F</step><alter>1</alter><octave>4</octave></pitch><duration>192</duration><voice>1</voice><type>quarter</type></note><note><pitch><step>A</step><octave>4</octave></pitch><duration>192</duration><voice>1</voice><type>quarter</type></note><note><pitch><step>G</step><alter>1</alter><octave>4</octave></pitch><duration>192</duration><voice>1</voice><type>quarter</type></note><note><pitch><step>A</step><octave>4</octave></pitch><duration>192</duration><voice>1</voice><type>quarter</type></note></measure><measure number="18"><attributes/><note><pitch><step>F</step><alter>1</alter><octave>4</octave></pitch><duration>384</duration><tie type="start"/><voice>1</voice><type>half</type><notations><tied type="start"/></notations></note><note><pitch><step>F</step><alter>1</alter><octave>4</octave></pitch><duration>192</duration><tie type="stop"/><voice>1</voice><type>quarter</type><notations><tied type="stop"/></notations></note><note><pitch><step>E</step><octave>4</octave></pitch><duration>192</duration><voice>1</voice><type>quarter</type></note></measure><measure number="19"><attributes/><note><pitch><step>F</step><alter>1</alter><octave>4</octave></pitch><duration>192</duration><voice>1</voice><type>quarter</type></note><note><pitch><step>A</step><octave>4</octave></pitch><duration>192</duration><voice>1</voice><type>quarter</type></note><note><pitch><step>G</step><alter>1</alter><octave>4</octave></pitch><duration>192</duration><voice>1</voice><type>quarter</type></note><note><pitch><step>A</step><octave>4</octave></pitch><duration>192</duration><voice>1</voice><type>quarter</type></note></measure><measure number="20"><attributes/><note><pitch><step>B</step><octave>4</octave></pitch><duration>384</duration><voice>1</voice><type>half</type></note><note><pitch><step>D</step><octave>5</octave></pitch><duration>384</duration><voice>1</voice><type>half</type></note></measure><measure number="21"><attributes/><note><pitch><step>G</step><alter>1</alter><octave>5</octave></pitch><duration>384</duration><tie type="start"/><voice>1</voice><type>half</type><notations><tied type="start"/></notations></note><note><pitch><step>G</step><alter>1</alter><octave>5</octave></pitch><duration>192</duration><tie type="stop"/><voice>1</voice><type>quarter</type><notations><tied type="stop"/></notations></note><note><pitch><step>C</step><alter>1</alter><octave>5</octave></pitch><duration>192</duration><voice>1</voice><type>quarter</type></note></measure><measure number="22"><attributes/><note><pitch><step>G</step><alter>1</alter><octave>5</octave></pitch><duration>384</duration><voice>1</voice><type>half</type></note><note><pitch><step>F</step><alter>1</alter><octave>5</octave></pitch><duration>384</duration><tie type="start"/><voice>1</voice><type>half</type><notations><tied type="start"/></notations></note></measure><measure number="23"><attributes/><note><pitch><step>F</step><alter>1</alter><octave>5</octave></pitch><duration>192</duration><tie type="stop"/><voice>1</voice><type>quarter</type><notations><tied type="stop"/></notations></note><note><pitch><step>C</step><alter>1</alter><octave>5</octave></pitch><duration>192</duration><voice>1</voice><type>quarter</type></note><note><pitch><step>D</step><octave>5</octave></pitch><duration>288</duration><voice>1</voice><type>quarter</type><dot/></note><note><pitch><step>E</step><octave>5</octave></pitch><duration>96</duration><voice>1</voice><type>eighth</type></note></measure><measure number="24"><attributes/><note><pitch><step>G</step><alter>1</alter><octave>4</octave></pitch><duration>768</duration><voice>1</voice><type>whole</type></note></measure><measure number="25"><attributes/><note><rest/><duration>192</duration><voice>1</voice><type>quarter</type></note><note><pitch><step>C</step><alter>1</alter><octave>5</octave></pitch><duration>192</duration><voice>1</voice><type>quarter</type></note><note><pitch><step>D</step><octave>5</octave></pitch><duration>288</duration><voice>1</voice><type>quarter</type><dot/></note><note><pitch><step>E</step><octave>5</octave></pitch><duration>96</duration><voice>1</voice><type>eighth</type></note></measure><measure number="26"><attributes/><note><pitch><step>G</step><alter>1</alter><octave>4</octave></pitch><duration>768</duration><voice>1</voice><type>whole</type></note></measure><measure number="27"><attributes/><note><pitch><step>A</step><octave>4</octave></pitch><duration>768</duration><voice>1</voice><type>whole</type></note></measure><measure number="28"><attributes/><note><rest/><duration>768</duration><voice>1</voice><type>whole</type></note><barline location="right"><bar-style>light-heavy</bar-style></barline></measure></part></score-partwise>