<?xml version="1.0" encoding="UTF-8"?>
<!DOCTYPE score-partwise PUBLIC "-//Recordare//DTD MusicXML 2.0 Partwise//EN"
  "http://www.musicxml.org/dtds/partwise.dtd">
<score-partwise version="2.0"><work><work-title>Abyss Watchers</work-title></work><identification><creator type="composer"/><creator type="lyricist"/><rights/><encoding><software>Noteflight version 0.4</software><encoding-date>2023-09-05</encoding-date><supports attribute="new-system" element="print" type="no" value="no"/><supports attribute="new-page" element="print" type="no" value="no"/></encoding></identification><defaults><scaling><millimeters>2.1166666679999997</millimeters><tenths>10</tenths></scaling><page-layout><page-height>1320</page-height><page-width>1020</page-width><page-margins type="both"><left-margin>59.583333333333336</left-margin><right-margin>56.66666666666667</right-margin><top-margin>96.66666666666667</top-margin><bottom-margin>80</bottom-margin></page-margins></page-layout><system-layout><system-margins><left-margin>59.583333333333336</left-margin><right-margin>26.666666666666668</right-margin></system-margins><system-distance>92.5</system-distance><top-system-distance>145.83333333333334</top-system-distance></system-layout><staff-layout><staff-distance>55</staff-distance></staff-layout></defaults><credit page="1"><credit-type>title</credit-type><credit-words font-size="24" default-x="510" default-y="1210" justify="right" valign="top">Abyss Watchers</credit-words></credit><part-list><score-part id="P1"><part-name>Violin</part-name><part-abbreviation>Vn.</part-abbreviation><score-instrument id="P1I1"><instrument-name>Violin</instrument-name><instrument-sound>strings.violin</instrument-sound></score-instrument><midi-instrument id="P1I1"><midi-channel>1</midi-channel><midi-program>41</midi-program></midi-instrument></score-part></part-list><part id="P1"><measure number="1"><attributes><divisions>64</divisions><key><fifths>-4</fifths><mode>major</mode></key><time print-object="yes"><beats>4</beats><beat-type>4</beat-type></time><clef number="1"><sign>G</sign><line>2</line></clef></attributes><direction placement="above"><direction-type><metronome><beat-unit>quarter</beat-unit><per-minute>115</per-minute></metronome></direction-type><sound tempo="115"/></direction><direction placement="above"><direction-type><metronome><beat-unit>quarter</beat-unit><per-minute>115</per-minute></metronome></direction-type><sound tempo="115"/></direction><note><rest/><duration>256</duration><voice>1</voice><type>whole</type></note></measure><measure number="2"><attributes/><note><rest/><duration>256</duration><voice>1</voice><type>whole</type></note></measure><measure number="3"><attributes/><note><rest/><duration>256</duration><voice>1</voice><type>whole</type></note></measure><measure number="4"><print new-system="yes"/><attributes/><note><rest/><duration>256</duration><voice>1</voice><type>whole</type></note><barline location="right"><bar-style>light-heavy</bar-style></barline></measure><measure number="5"><attributes/><note><pitch><step>F</step><octave>5</octave></pitch><duration>192</duration><voice>1</voice><type>half</type><dot/></note><note><pitch><step>E</step><alter>-1</alter><octave>5</octave></pitch><duration>64</duration><tie type="start"/><voice>1</voice><type>quarter</type><notations><tied type="start"/></notations></note></measure><measure number="6"><attributes/><note><pitch><step>E</step><alter>-1</alter><octave>5</octave></pitch><duration>32</duration><tie type="stop"/><voice>1</voice><type>eighth</type><notations><tied type="stop"/></notations></note><note><pitch><step>F</step><octave>5</octave></pitch><duration>96</duration><voice>1</voice><type>quarter</type><dot/></note><note><pitch><step>D</step><alter>-1</alter><octave>5</octave></pitch><duration>128</duration><tie type="start"/><voice>1</voice><type>half</type><notations><tied type="start"/></notations></note></measure><measure number="7"><attributes/><note><pitch><step>D</step><alter>-1</alter><octave>5</octave></pitch><duration>256</duration><tie type="stop"/><voice>1</voice><type>whole</type><notations><tied type="stop"/></notations></note></measure><measure number="8"><print new-system="yes"/><attributes/><note><pitch><step>F</step><octave>5</octave></pitch><duration>192</duration><voice>1</voice><type>half</type><dot/></note><note><pitch><step>E</step><alter>-1</alter><octave>5</octave></pitch><duration>64</duration><tie type="start"/><voice>1</voice><type>quarter</type><notations><tied type="start"/></notations></note><barline location="right"><bar-style>light-heavy</bar-style></barline></measure><measure number="9"><attributes/><note><pitch><step>E</step><alter>-1</alter><octave>5</octave></pitch><duration>32</duration><tie type="stop"/><voice>1</voice><type>eighth</type><notations><tied type="stop"/></notations></note><note><pitch><step>F</step><octave>5</octave></pitch><duration>96</duration><voice>1</voice><type>quarter</type><dot/></note><note><pitch><step>A</step><alter>-1</alter><octave>5</octave></pitch><duration>64</duration><voice>1</voice><type>quarter</type></note><note><pitch><step>B</step><alter>-1</alter><octave>5</octave></pitch><duration>64</duration><tie type="start"/><voice>1</voice><type>quarter</type><notations><tied type="start"/></notations></note></measure><measure number="10"><attributes/><note><pitch><step>B</step><alter>-1</alter><octave>5</octave></pitch><duration>256</duration><tie type="stop"/><voice>1</voice><type>whole</type><notations><tied type="stop"/></notations></note></measure><measure number="11"><attributes/><note><pitch><step>A</step><alter>-1</alter><octave>5</octave></pitch><duration>64</duration><voice>1</voice><type>quarter</type></note><note><pitch><step>G</step><octave>5</octave></pitch><duration>64</duration><voice>1</voice><type>quarter</type></note><note><pitch><step>E</step><alter>-1</alter><octave>5</octave></pitch><duration>64</duration><voice>1</voice><type>quarter</type></note><note><pitch><step>D</step><alter>-1</alter><octave>5</octave></pitch><duration>64</duration><voice>1</voice><type>quarter</type></note></measure><measure number="12"><print new-system="yes"/><attributes/><note><pitch><step>C</step><octave>5</octave></pitch><duration>64</duration><voice>1</voice><type>quarter</type></note><note><pitch><step>F</step><octave>5</octave></pitch><duration>64</duration><voice>1</voice><type>quarter</type></note><note><pitch><step>E</step><alter>-1</alter><octave>5</octave></pitch><duration>64</duration><voice>1</voice><type>quarter</type></note><note><pitch><step>F</step><octave>5</octave></pitch><duration>64</duration><voice>1</voice><type>quarter</type></note><barline location="right"><bar-style>light-heavy</bar-style></barline></measure><measure number="13"><attributes/><note><pitch><step>D</step><alter>-1</alter><octave>5</octave></pitch><duration>64</duration><voice>1</voice><type>quarter</type></note><note><pitch><step>F</step><octave>5</octave></pitch><duration>64</duration><voice>1</voice><type>quarter</type></note><note><pitch><step>E</step><alter>-1</alter><octave>5</octave></pitch><duration>64</duration><voice>1</voice><type>quarter</type></note><note><pitch><step>F</step><octave>5</octave></pitch><duration>64</duration><voice>1</voice><type>quarter</type></note></measure><measure number="14"><attributes/><note><pitch><step>A</step><alter>-1</alter><octave>5</octave></pitch><duration>64</duration><voice>1</voice><type>quarter</type></note><note><pitch><step>B</step><alter>-1</alter><octave>5</octave></pitch><duration>64</duration><voice>1</voice><type>quarter</type></note><note><pitch><step>C</step><octave>6</octave></pitch><duration>64</duration><voice>1</voice><type>quarter</type></note><note><pitch><step>B</step><alter>-1</alter><octave>5</octave></pitch><duration>64</duration><voice>1</voice><type>quarter</type></note></measure><measure number="15"><attributes/><note><pitch><step>C</step><octave>6</octave></pitch><duration>64</duration><voice>1</voice><type>quarter</type></note><note><pitch><step>B</step><alter>-1</alter><octave>5</octave></pitch><duration>64</duration><voice>1</voice><type>quarter</type></note><note><pitch><step>B</step><alter>-1</alter><octave>5</octave></pitch><duration>64</duration><voice>1</voice><type>quarter</type></note><note><pitch><step>C</step><octave>6</octave></pitch><duration>64</duration><voice>1</voice><type>quarter</type></note></measure><measure number="16"><print new-system="yes"/><attributes/><note><pitch><step>D</step><alter>-1</alter><octave>6</octave></pitch><duration>64</duration><voice>1</voice><type>quarter</type></note><note><pitch><step>G</step><octave>5</octave></pitch><duration>64</duration><voice>1</voice><type>quarter</type></note><note><pitch><step>F</step><octave>5</octave></pitch><duration>64</duration><voice>1</voice><type>quarter</type></note><note><pitch><step>A</step><alter>-1</alter><octave>4</octave></pitch><duration>64</duration><voice>1</voice><type>quarter</type></note><barline location="right"><bar-style>light-heavy</bar-style></barline></measure><measure number="17"><attributes/><note><pitch><step>B</step><alter>-1</alter><octave>4</octave></pitch><duration>64</duration><voice>1</voice><type>quarter</type></note><note><pitch><step>C</step><octave>5</octave></pitch><duration>64</duration><voice>1</voice><type>quarter</type></note><note><pitch><step>D</step><alter>-1</alter><octave>5</octave></pitch><duration>64</duration><voice>1</voice><type>quarter</type></note><note><pitch><step>F</step><octave>5</octave></pitch><duration>64</duration><voice>1</voice><type>quarter</type></note></measure><measure number="18"><attributes/><note><pitch><step>F</step><octave>5</octave></pitch><duration>64</duration><voice>1</voice><type>quarter</type></note><note><pitch><step>G</step><octave>5</octave></pitch><duration>64</duration><voice>1</voice><type>quarter</type></note><note><pitch><step>A</step><alter>-1</alter><octave>5</octave></pitch><duration>64</duration><voice>1</voice><type>quarter</type></note><note><pitch><step>G</step><octave>5</octave></pitch><duration>64</duration><voice>1</voice><type>quarter</type></note></measure><measure number="19"><attributes/><note><pitch><step>B</step><alter>-1</alter><octave>5</octave></pitch><duration>64</duration><voice>1</voice><type>quarter</type></note><note><pitch><step>A</step><alter>-1</alter><octave>5</octave></pitch><duration>64</duration><voice>1</voice><type>quarter</type></note><note><pitch><step>E</step><alter>-1</alter><octave>5</octave></pitch><duration>64</duration><voice>1</voice><type>quarter</type></note><note><pitch><step>F</step><octave>5</octave></pitch><duration>64</duration><voice>1</voice><type>quarter</type></note></measure><measure number="20"><attributes/><note><pitch><step>G</step><octave>5</octave></pitch><duration>64</duration><voice>1</voice><type>quarter</type></note><note><pitch><step>F</step><octave>5</octave></pitch><duration>64</duration><voice>1</voice><type>quarter</type></note><note><rest/><duration>128</duration><voice>1</voice><type>half</type></note><barline location="right"><bar-style>light-heavy</bar-style></barline></measure></part></score-partwise>